<?xml version="1.0" encoding="UTF-8"?>
<svg version="1.1" xmlns="http://www.w3.org/2000/svg" width="1600" height="1584">
<path d="M0 0 C528 0 1056 0 1600 0 C1600 522.72 1600 1045.44 1600 1584 C1072 1584 544 1584 0 1584 C0 1061.28 0 538.56 0 0 Z " fill="#095ACE" transform="translate(0,0)"/>
<path d="M0 0 C528 0 1056 0 1600 0 C1600 522.72 1600 1045.44 1600 1584 C1072 1584 544 1584 0 1584 C0 1061.28 0 538.56 0 0 Z M583.6875 58.5625 C580.59822778 59.52565618 577.50251114 60.41950124 574.375 61.25 C539.73922557 70.506416 506.01498859 84.56939426 473.62890625 99.77148438 C471.25928745 100.87883224 468.88236422 101.96729914 466.5 103.046875 C455.58658055 108.02512717 445.1051145 113.72249452 434.62353516 119.54785156 C432.26024131 120.85595428 429.88880741 122.14688207 427.51171875 123.4296875 C406.20636301 134.98377388 385.83710766 148.0957569 366 162 C364.98824707 162.70697021 364.98824707 162.70697021 363.95605469 163.42822266 C359.93879523 166.24240206 355.95623896 169.10071962 352 172 C351.37996094 172.45407227 350.75992187 172.90814453 350.12109375 173.37597656 C340.42131699 180.50618025 331.02104102 187.95462034 321.72021484 195.59570312 C319.48042176 197.42415754 317.20981093 199.21219835 314.9375 201 C303.4530438 210.17988305 292.6185298 220.0917263 281.93554688 230.18212891 C279.94212371 232.05435758 277.93400616 233.90962176 275.921875 235.76171875 C268.46938452 242.64162044 261.341165 249.66780127 254.546875 257.19921875 C252.47947539 259.47272415 250.38098916 261.66268651 248.1875 263.8125 C245.27825998 266.67278646 242.60317784 269.68683043 239.94140625 272.77734375 C237.71195939 275.32976883 235.41998618 277.81887514 233.125 280.3125 C229.02800073 284.80498638 225.13879574 289.41907282 221.32421875 294.15234375 C219.3273998 296.59886646 217.28486257 298.99565509 215.21704102 301.38208008 C207.31369746 310.54202219 200.17004482 320.2628077 193 330 C192.45617676 330.7331543 191.91235352 331.46630859 191.35205078 332.22167969 C175.24891583 353.95012293 160.56752162 376.61224846 147 400 C146.15091064 401.4547876 146.15091064 401.4547876 145.28466797 402.93896484 C108.48325954 466.26792266 82.61516487 534.77175885 66 606 C65.73155273 607.13775879 65.46310547 608.27551758 65.18652344 609.44775391 C52.79011036 662.19011364 47.85379975 715.67353405 47.8125 769.75 C47.81132172 770.93306732 47.81014343 772.11613464 47.80892944 773.33505249 C47.81433303 821.16134819 52.07434854 868.66034455 61.5 915.5625 C61.68532288 916.48487457 61.87064575 917.40724915 62.06158447 918.35757446 C64.08926795 928.37373017 66.26964458 938.34866743 68.625 948.29296875 C68.82508667 949.1385585 69.02517334 949.98414825 69.23132324 950.85536194 C71.0234772 958.31030455 73.15127272 965.64533948 75.38873291 972.9770813 C75.98745544 974.95848522 76.56740138 976.94429203 77.14013672 978.93334961 C80.03862101 988.98834328 83.21591614 998.91957043 86.625 1008.8125 C86.88222839 1009.5612439 87.13945679 1010.30998779 87.40447998 1011.0814209 C105.19131678 1062.7334678 128.42525335 1112.43961646 157 1159 C157.55848633 1159.91023926 158.11697266 1160.82047852 158.69238281 1161.75830078 C165.46303944 1172.73835953 172.58366096 1183.44695111 180 1194 C180.3933252 1194.56428711 180.78665039 1195.12857422 181.19189453 1195.70996094 C189.11227742 1207.06685977 197.55251237 1218.0326652 206 1229 C206.81597656 1230.06226807 206.81597656 1230.06226807 207.6484375 1231.14599609 C213.47331609 1238.71569745 219.53258914 1245.96483933 226 1253 C227.17134665 1254.3292238 228.33824593 1255.66238407 229.5 1257 C232.8198287 1260.81165518 236.20121138 1264.56551705 239.59375 1268.3125 C240.89424112 1269.76499657 242.19030022 1271.22178719 243.45985413 1272.70140076 C247.99678954 1277.97635633 252.78992728 1282.93568712 257.71484375 1287.84765625 C258.52941544 1288.66318466 259.34398712 1289.47871307 260.1832428 1290.31895447 C261.89559193 1292.03198008 263.60918842 1293.74375965 265.32397461 1295.4543457 C267.93002015 1298.05503552 270.53068522 1300.66101956 273.13085938 1303.26757812 C274.80436699 1304.94042486 276.47818482 1306.61296134 278.15234375 1308.28515625 C278.9202977 1309.05513443 279.68825165 1309.82511261 280.47947693 1310.61842346 C285.16069455 1315.27963547 289.97991423 1319.70719326 295 1324 C296.20266384 1325.04590882 297.40460509 1326.09264978 298.60546875 1327.140625 C301.77046283 1329.89066678 304.94151251 1332.63364926 308.11572266 1335.37304688 C309.30403282 1336.39907679 310.49134662 1337.42626286 311.67724609 1338.45507812 C320.13357617 1345.78302887 328.91265733 1352.61447925 337.84130859 1359.35595703 C339.91609792 1360.93610081 341.97061201 1362.53885127 344.01953125 1364.15234375 C355.04505345 1372.79726413 366.59186288 1380.54287547 378.3046875 1388.22265625 C380.58117893 1389.72382089 382.84274176 1391.24229539 385.09375 1392.78125 C395.74376714 1400.05640402 406.81973715 1406.57672399 418 1413 C419.01578125 1413.58410645 420.0315625 1414.16821289 421.078125 1414.77001953 C457.06222045 1435.3523403 494.16583537 1452.48515842 533 1467 C534.47388184 1467.5571167 534.47388184 1467.5571167 535.97753906 1468.12548828 C546.11158762 1471.95258191 556.21022582 1475.5085097 566.68579102 1478.28295898 C571.1774883 1479.47363195 575.54933576 1480.83415597 579.9375 1482.375 C610.0530778 1492.56161799 642.49039592 1499.12705813 673.94580078 1503.56445312 C677.10185339 1504.0145249 680.25154568 1504.49898306 683.40234375 1504.984375 C752.06227772 1515.21597427 824.19070194 1516.13719116 892.85675049 1505.33654785 C895.22785702 1504.96422032 897.59999267 1504.5988525 899.97216797 1504.23339844 C919.87714386 1501.1490046 939.61809998 1497.82866504 959.12255859 1492.73388672 C962.20432045 1491.9478884 965.29580435 1491.22000056 968.39453125 1490.50390625 C980.3139653 1487.74583067 991.98597339 1484.63855656 1003.59594727 1480.7800293 C1006.48458952 1479.842768 1009.3877968 1478.95889019 1012.29296875 1478.07421875 C1070.91988381 1460.10174718 1128.15277982 1433.8175363 1180 1401 C1180.74958984 1400.52788086 1181.49917969 1400.05576172 1182.27148438 1399.56933594 C1210.05468408 1382.01873159 1236.94302091 1362.97470559 1261.92578125 1341.60546875 C1264.69699155 1339.24135813 1267.52927189 1336.96156042 1270.375 1334.6875 C1275.64826087 1330.402493 1280.59381939 1325.80695987 1285.52294922 1321.13549805 C1288.53395733 1318.28405949 1291.57053793 1315.49026097 1294.71777344 1312.78930664 C1299.05048044 1309.00779952 1303.13200139 1305.01251094 1307.19140625 1300.94140625 C1307.94034653 1300.1934227 1308.6892868 1299.44543915 1309.46092224 1298.67478943 C1311.03271225 1297.10367536 1312.60325849 1295.53131608 1314.17260742 1293.95776367 C1316.55601304 1291.56900154 1318.94471068 1289.18562554 1321.33398438 1286.80273438 C1322.87011237 1285.2659455 1324.40593009 1283.7288464 1325.94140625 1282.19140625 C1326.64576309 1281.48907364 1327.35011993 1280.78674103 1328.07582092 1280.06312561 C1332.58240039 1275.53548154 1336.84911039 1270.85491791 1341 1266 C1341.96223543 1264.88280892 1342.92447431 1263.76562082 1343.88671875 1262.6484375 C1345.33741575 1260.95472125 1346.78623079 1259.25941159 1348.23461914 1257.5637207 C1350.80399372 1254.55739104 1353.38034993 1251.55842846 1355.984375 1248.58203125 C1363.191557 1240.31647689 1369.89925208 1231.74174577 1376.49658203 1222.98388672 C1377.857769 1221.18768579 1379.23356558 1219.40479293 1380.62109375 1217.62890625 C1399.71629515 1193.15649613 1416.77565562 1167.03037392 1432 1140 C1432.4527832 1139.20335937 1432.90556641 1138.40671875 1433.37207031 1137.5859375 C1464.40785977 1082.97420821 1489.48182291 1024.27243514 1505.13671875 963.35058594 C1506.00448724 959.98258403 1506.89235215 956.62029183 1507.78125 953.2578125 C1512.06922995 936.81625789 1515.37629721 920.29833216 1518.35205078 903.58203125 C1518.91401825 900.47532942 1519.50570035 897.37770908 1520.12109375 894.28125 C1524.18137885 873.62843509 1526.31623458 852.5783935 1528.1875 831.625 C1528.29505615 830.42822632 1528.29505615 830.42822632 1528.40478516 829.20727539 C1529.80750613 812.30465832 1530.20458825 795.39146429 1530.1875 778.4375 C1530.18722809 777.41029846 1530.18695618 776.38309692 1530.18667603 775.32476807 C1530.14840278 743.46122049 1528.86236885 711.64393128 1525 680 C1524.85836426 678.824375 1524.71672852 677.64875 1524.57080078 676.4375 C1519.0407411 631.46375499 1510.09065914 584.87775032 1494.19287109 542.31494141 C1493.06680572 539.18565046 1492.07570888 536.04961014 1491.125 532.86328125 C1480.80810032 499.07645282 1465.80351447 466.53130081 1450 435 C1449.49936035 433.99614258 1448.9987207 432.99228516 1448.48291016 431.95800781 C1426.37692502 387.86405414 1398.73870032 344.79845217 1367 307 C1365.53985761 305.20980734 1364.08157183 303.41809901 1362.625 301.625 C1354.88416105 292.17741357 1347.02245828 282.89377799 1338.703125 273.94921875 C1336.6627242 271.74913773 1334.69841919 269.49387735 1332.7421875 267.21875 C1328.66229515 262.53740613 1324.2878992 258.17783064 1319.875 253.8125 C1319.08996094 253.03197266 1318.30492187 252.25144531 1317.49609375 251.44726562 C1315.98524362 249.94533282 1314.47348582 248.44431235 1312.96069336 246.94433594 C1309.53304551 243.54528383 1306.12509131 240.12729726 1302.73046875 236.6953125 C1294.58498218 228.44932252 1294.58498218 228.44932252 1285.9765625 220.6953125 C1283.49139806 218.5637683 1281.09559854 216.34316401 1278.6875 214.125 C1273.28533578 209.20451023 1267.70109798 204.56828241 1262 200 C1260.80977266 199.04051735 1259.61967519 198.0808736 1258.4296875 197.12109375 C1240.15967303 182.41411115 1221.57610709 168.00613532 1201.89208984 155.22851562 C1199.89922272 153.93456628 1197.91242279 152.63160942 1195.92578125 151.328125 C1145.86758138 118.58748209 1092.38253203 91.94089818 1036 72 C1034.62195525 71.50797189 1033.24403039 71.01560788 1031.86621094 70.52294922 C1013.72159198 64.04846182 995.64970405 58.23818703 976.90673828 53.71289062 C973.35630762 52.84213155 969.82754698 51.90125735 966.29833984 50.94873047 C950.42646425 46.67136668 934.56409747 43.49955087 918.31640625 41 C914.39435823 40.39213301 910.48956749 39.73745468 906.58984375 39 C894.69121592 36.7566277 882.78192991 35.18018378 870.75 33.875 C870.01881958 33.79459473 869.28763916 33.71418945 868.53430176 33.63134766 C863.02774777 33.03149844 857.51644964 32.50016862 852 32 C851.0251062 31.90999725 850.0502124 31.81999451 849.04577637 31.7272644 C831.92564502 30.18506499 814.92271396 29.71288714 797.73730469 29.79418945 C793.7388052 29.81255141 789.74072473 29.81469724 785.7421875 29.81445312 C717.81590628 29.90518256 648.69735177 38.24234995 583.6875 58.5625 Z " fill="#F7F7F7" transform="translate(0,0)"/>
<path d="M0 0 C0.97646484 0.42571289 1.95292969 0.85142578 2.95898438 1.29003906 C3.99345703 1.77698242 5.02792969 2.26392578 6.09375 2.765625 C7.27324219 3.31863281 8.45273437 3.87164062 9.66796875 4.44140625 C10.94532498 5.0442444 12.22266837 5.64710974 13.5 6.25 C14.83967862 6.87925793 16.17952552 7.5081577 17.51953125 8.13671875 C20.30143455 9.44197431 23.08260966 10.74876323 25.86328125 12.05664062 C31.61942004 14.76260402 37.38430094 17.44978553 43.14916992 20.13708496 C46.26653037 21.59049619 49.38322928 23.04532469 52.5 24.5 C53.74999688 25.08334001 54.99999688 25.66667335 56.25 26.25 C153.74999996 71.74999998 153.74999996 71.74999998 155.62512207 72.62506104 C156.87471101 73.20819983 158.12430411 73.79132972 159.37390137 74.37445068 C162.50522477 75.83568735 165.63647506 77.29708031 168.76757812 78.75878906 C174.91638393 81.62906899 181.06629803 84.49691499 187.21875 87.359375 C201.21297886 93.87399481 215.17940099 100.44436703 229.125 107.0625 C243.57495865 113.91983975 258.05903207 120.69638506 272.57519531 127.41259766 C278.68061451 130.24246903 284.77770425 133.09018164 290.875 135.9375 C292.13346148 136.52506953 293.39192502 137.11263463 294.65039062 137.70019531 C297.17290216 138.87798413 299.69535263 140.05590361 302.21777344 141.23388672 C307.85365032 143.86574346 313.49036317 146.49580879 319.12701416 149.12600708 C322.25137712 150.58393113 325.37568581 152.04197146 328.5 153.5 C329.74999974 154.08333389 330.99999974 154.66666722 332.25 155.25 C344.75 161.08333333 357.25 166.91666667 369.75 172.75 C370.36880539 173.03877518 370.98761078 173.32755035 371.62516785 173.62507629 C372.87461044 174.20815086 374.12405095 174.79122988 375.37348938 175.37431335 C378.50700069 176.83664245 381.64054857 178.29889307 384.77416992 179.76098633 C390.88800461 182.61369359 397.00128617 185.46757121 403.11328125 188.32421875 C419.60312765 196.02907166 436.11110907 203.69424165 452.62817383 211.34057617 C462.42660057 215.87707697 472.21874843 220.42657662 482 225 C482 225.66 482 226.32 482 227 C481.07179443 227.43642822 480.14358887 227.87285645 479.18725586 228.32250977 C462.75292718 236.05271871 446.331498 243.8044436 430 251.75 C420.54424803 256.35022116 411.053842 260.85567627 401.5 265.25 C389.22475638 270.898314 377.08462118 276.80587322 364.94989014 282.74893188 C354.72277062 287.75543481 344.47544499 292.68995941 334.125 297.4375 C320.46073267 303.70607913 306.96534817 310.31024513 293.47119141 316.93530273 C289.41230094 318.92792759 285.34860281 320.91042728 281.28167725 322.88659668 C279.04208797 323.97946209 276.80943061 325.0856699 274.57666016 326.19238281 C273.22463918 326.85034002 271.87228253 327.5076081 270.51953125 328.1640625 C269.35139893 328.73850098 268.1832666 329.31293945 266.97973633 329.90478516 C264 331 264 331 261.69995117 330.78930664 C259.22033851 329.63799431 258.12626659 327.99868732 256.5 325.8125 C248.64205502 315.59863483 240.2748449 305.9544088 231 297 C228.03751279 294.0581214 225.1043086 291.08878161 222.1796875 288.109375 C214.42832926 280.24017668 206.71215423 272.79739506 198 266 C196.79924649 265.0138608 195.60154666 264.02399639 194.40625 263.03125 C173.49831529 245.70132565 151.09031063 230.56335257 127 218 C126.1013623 217.53094238 125.20272461 217.06188477 124.27685547 216.57861328 C103.55137179 205.90078213 80.39417523 195.84545044 57.35449219 191.45214844 C55.57020444 191.10950007 53.79026079 190.74413165 52.01269531 190.36816406 C35.3205124 186.89082691 19.21273658 185.52990711 2.1875 185.5625 C1.31329407 185.56245972 0.43908813 185.56241943 -0.46160889 185.56237793 C-12.42430973 185.59445932 -24.14396366 186.43123804 -36 188 C-36.77053711 188.09981171 -37.54107422 188.19962341 -38.33496094 188.30245972 C-79.78717289 193.7167249 -120.64042394 209.71743616 -157 230 C-158.83332533 231.006525 -160.66665906 232.01303469 -162.5 233.01953125 C-188.06260387 247.16257129 -211.99818749 263.26277328 -234.91015625 281.35546875 C-236.83830334 282.87275833 -238.77573646 284.37682325 -240.71875 285.875 C-255.13282666 297.01734187 -269.23903445 308.97682283 -282 322 C-286.6453602 320.57938558 -290.90014297 318.67552838 -295.21484375 316.47265625 C-295.89922012 316.127686 -296.5835965 315.78271576 -297.28871155 315.42729187 C-298.75052072 314.69020354 -300.21147286 313.95141346 -301.67163086 313.21105957 C-305.4939595 311.2735372 -309.32298271 309.34935853 -313.15234375 307.42578125 C-313.91187347 307.04404755 -314.6714032 306.66231384 -315.45394897 306.26901245 C-322.81267911 302.57807315 -330.22529132 299.00779443 -337.66772461 295.48852539 C-343.48982555 292.73514154 -349.23548725 289.88225638 -355 287 C-355 355.97 -355 424.94 -355 496 C-369.19 496 -383.38 496 -398 496 C-398 423.4 -398 350.8 -398 276 C-399.98 275.34 -401.96 274.68 -404 274 C-405.64422579 273.15205726 -407.26231535 272.25167158 -408.8515625 271.3046875 C-409.77050293 270.76207275 -410.68944336 270.21945801 -411.63623047 269.66040039 C-413.11567139 268.7766272 -413.11567139 268.7766272 -414.625 267.875 C-416.78575431 266.59906743 -418.94724252 265.32437705 -421.109375 264.05078125 C-422.23794922 263.3851416 -423.36652344 262.71950195 -424.52929688 262.03369141 C-430.27945156 258.65487849 -436.07936569 255.36242009 -441.875 252.0625 C-444.24770468 250.71017662 -446.62004635 249.35721788 -448.9921875 248.00390625 C-449.57783478 247.6698175 -450.16348206 247.33572876 -450.76687622 246.99151611 C-456.8566027 243.51513521 -462.92895481 240.00886774 -469 236.5 C-482.63902513 228.61817253 -496.31671134 220.80464564 -510 213 C-510 212.34 -510 211.68 -510 211 C-496.16230839 204.80439898 -482.25358525 198.8088419 -468.25 193 C-454.50107615 187.29618953 -440.7729467 181.54573951 -427.0625 175.75 C-426.1202356 175.35176025 -425.17797119 174.95352051 -424.20715332 174.54321289 C-419.39456443 172.50912501 -414.58222189 170.47445525 -409.77001953 168.43945312 C-401.28218192 164.85043519 -392.79204999 161.26685201 -384.30206299 157.68292236 C-381.49737229 156.49889068 -378.69276346 155.31466527 -375.88818359 154.13037109 C-367.40401568 150.54777969 -358.91960817 146.96575986 -350.43417358 143.38616943 C-331.61322793 135.44648779 -312.79661098 127.49714606 -294 119.5 C-274.25120148 111.09773927 -254.47994662 102.7490718 -234.70556641 94.40722656 C-226.23870123 90.83528194 -217.77312857 87.26027619 -209.3074646 83.68548584 C-204.62169662 81.70686371 -199.93584401 79.72844205 -195.25 77.75 C-193.37499959 76.95833429 -191.49999959 76.16666763 -189.625 75.375 C-133.37499998 51.62499999 -133.37499998 51.62499999 -130.56253052 50.43751526 C-128.68742652 49.6458031 -126.8123248 48.85408557 -124.93722534 48.06236267 C-120.25133502 46.08384797 -115.56540539 44.10542646 -110.87939453 42.12719727 C-100.53357213 37.75951159 -90.18841856 33.3902542 -79.84529114 29.01618958 C-75.17193141 27.04030566 -70.49737386 25.06735714 -65.82006836 23.10083008 C-57.15638041 19.45657017 -48.50211383 15.79464371 -39.878479 12.05638123 C-35.89933624 10.33404879 -31.91402518 8.62629575 -27.92779541 6.92044067 C-26.03315297 6.10517335 -24.14143505 5.28307219 -22.25286865 4.4538269 C-19.64578664 3.30975902 -17.02960595 2.18961492 -14.41015625 1.07421875 C-13.64354172 0.7305426 -12.87692719 0.38686646 -12.08708191 0.03277588 C-7.32293992 -1.96033811 -4.85951749 -2.32317762 0 0 Z " fill="#FEFEFE" transform="translate(813,490)"/>
<path d="M0 0 C1.2689209 0.23976563 1.2689209 0.23976563 2.56347656 0.484375 C48.98608135 9.28409649 93.21881439 36.02725347 129.33789062 65.64208984 C130.85692937 66.88311415 132.38877468 68.10842043 133.921875 69.33203125 C145.30906284 78.46481919 155.67064851 88.57992093 166 98.875 C166.90862793 99.77895508 167.81725586 100.68291016 168.75341797 101.61425781 C169.61854004 102.48147461 170.48366211 103.34869141 171.375 104.2421875 C172.53128906 105.40016846 172.53128906 105.40016846 173.7109375 106.58154297 C174.46632813 107.37963379 175.22171875 108.17772461 176 109 C177.29834778 110.32414917 177.29834778 110.32414917 178.6229248 111.67504883 C181.46710387 115.13237662 181.59316823 118.26960317 181.32226562 122.61767578 C181.28461342 123.73590288 181.28461342 123.73590288 181.24620056 124.87672043 C181.15705388 127.35951121 181.03150295 129.83910199 180.90625 132.3203125 C180.83552154 134.09642652 180.76742826 135.87264717 180.70178223 137.6489563 C180.558727 141.45130031 180.40257354 145.25281737 180.23876953 149.05432129 C179.98975607 155.01118069 179.82011273 160.96868618 179.66796875 166.92871094 C179.43150063 176.13140097 179.14740247 185.33124248 178.81959534 194.53113937 C178.63382563 199.78096934 178.4653425 205.03026656 178.33300781 210.28173828 C178.20115098 215.49080643 178.02711808 220.69691268 177.82368469 225.90365982 C177.75461641 227.85426135 177.70025527 229.80544829 177.66178894 231.75689316 C177.31348845 248.62457185 177.31348845 248.62457185 171.5534668 255.08251953 C170.06791259 256.42494153 168.55410916 257.7375766 167 259 C166.15050781 259.928125 165.30101562 260.85625 164.42578125 261.8125 C115.61217409 312.34044826 29.21801388 325.01445301 -37.74200439 326.18173218 C-48.0617013 326.31189506 -58.37667469 326.20444792 -68.69519043 326.03387451 C-70.85057001 326.00219622 -73.0055707 325.98253621 -75.16113281 325.96923828 C-143.88001448 325.47604057 -222.99443642 310.71794759 -274.36328125 261.69140625 C-281.48955966 254.41732355 -281.48955966 254.41732355 -281.55503845 248.16453552 C-281.58713158 246.41326607 -281.58713158 246.41326607 -281.61987305 244.62661743 C-281.62277344 243.35434296 -281.62567383 242.08206848 -281.62866211 240.77124023 C-281.64555283 239.41066005 -281.66403156 238.05009879 -281.68397522 236.68955994 C-281.73207429 232.99907216 -281.75384137 229.30889552 -281.76782298 225.61813617 C-281.77734682 223.30784957 -281.7918021 220.99764511 -281.80783272 218.6873951 C-281.86280382 210.61408016 -281.89379384 202.54101639 -281.90600586 194.4675293 C-281.91808966 186.96474824 -281.98656258 179.46388689 -282.08073229 171.96172947 C-282.15893236 165.50453889 -282.19429338 159.04798356 -282.19765478 152.59032398 C-282.20053102 148.7404861 -282.22070959 144.8927031 -282.28529167 141.04336357 C-282.70450058 114.52918569 -282.70450058 114.52918569 -277.14138889 107.73988438 C-274.9373748 105.552816 -272.55234535 103.76032214 -270 102 C-268.86622875 100.86875762 -267.75585301 99.71274892 -266.6875 98.51953125 C-261.21511025 93.00737122 -255.6455587 87.89476087 -249.55078125 83.05859375 C-247.27269512 81.22007707 -245.13923704 79.30827736 -243 77.3125 C-210.60353369 48.22535014 -169.31944152 26.55223144 -129 11 C-127.64140869 10.46487793 -127.64140869 10.46487793 -126.25537109 9.91894531 C-118.50800781 6.96360265 -110.55096338 4.93099351 -102.5 3 C-101.78035065 2.82702393 -101.06070129 2.65404785 -100.31924438 2.47583008 C-65.97184302 -5.71507151 -34.74495827 -6.98091658 0 0 Z " fill="#FEFEFE" transform="translate(856,728)"/>
<path d="M0 0 C0.41507813 0.97453125 0.83015625 1.9490625 1.2578125 2.953125 C10.82451349 25.09717687 21.80691165 46.45383379 34.25878906 67.10742188 C35.9972078 69.99536148 37.71460458 72.89502905 39.4296875 75.796875 C50.21627527 93.92201709 62.12196635 111.29535064 75 128 C75.74894531 128.99128906 76.49789062 129.98257812 77.26953125 131.00390625 C86.5428994 143.2135913 96.17545598 155.17969417 106.62109375 166.41015625 C108.56262613 168.52384421 110.45716577 170.66257255 112.33984375 172.828125 C115.85499189 176.85830625 119.46390548 180.78982897 123.125 184.6875 C123.77025635 185.37448975 124.4155127 186.06147949 125.08032227 186.76928711 C133.02863077 195.19447466 141.02125905 203.64955003 149.8671875 211.14453125 C152.1227273 213.10676826 154.29643328 215.14662232 156.47192383 217.19677734 C162.51782416 222.87747708 168.78090732 228.10452309 175.3515625 233.1640625 C178.52359473 235.61027624 181.62211194 238.13616641 184.71191406 240.68505859 C194.20261673 248.50327708 204.0072626 255.83747819 214 263 C214.91233398 263.65436035 215.82466797 264.3087207 216.76464844 264.98291016 C229.06130613 273.76232804 241.5299542 282.03721999 254.60449219 289.61181641 C256.97416189 290.98502696 259.33537252 292.37186683 261.6953125 293.76171875 C337.97884061 338.52332532 422.07144014 367.15611751 509.90057373 377.74609375 C511.90567089 377.98859176 513.91012932 378.23635378 515.91455078 378.484375 C519.44172899 378.91831659 522.97015122 379.33839493 526.5 379.75 C527.46929443 379.86569336 528.43858887 379.98138672 529.43725586 380.10058594 C600.63779757 387.97122121 677.02536535 381.57985324 746.04443359 362.53027344 C748.72601774 361.80313227 751.42395104 361.15059095 754.125 360.5 C768.55838977 356.90933236 782.68372118 352.24253254 796.75 347.4375 C797.64284698 347.13253601 798.53569397 346.82757202 799.45559692 346.5133667 C835.96215363 333.99463038 871.49588917 318.1984055 905 299 C905.97066406 298.44586426 906.94132812 297.89172852 907.94140625 297.32080078 C933.02273945 282.89576414 957.07096679 266.60395188 979.81225586 248.71899414 C982.09334607 246.92665443 984.38809114 245.15273641 986.68359375 243.37890625 C990.25719335 240.59978472 993.74168045 237.74850213 997.1875 234.8125 C997.72648926 234.35327148 998.26547852 233.89404297 998.82080078 233.42089844 C999.96016427 232.44954112 1001.09882841 231.47736294 1002.23681641 230.50439453 C1004.05316397 228.95463911 1005.8757249 227.41243146 1007.69921875 225.87109375 C1015.76149657 219.04039502 1015.76149657 219.04039502 1023.32788086 211.67114258 C1024.9783448 210.02164255 1026.69203618 208.52287186 1028.47265625 207.015625 C1033.55342066 202.59729084 1038.29747042 197.85288008 1043.0456543 193.0847168 C1044.5599258 191.56508332 1046.0794743 190.05087483 1047.59960938 188.53710938 C1052.39961567 183.74038526 1057.09349625 178.89506883 1061.50854492 173.73657227 C1063.72736268 171.15309694 1066.05385206 168.67942309 1068.375 166.1875 C1072.61186417 161.59575319 1076.65405883 156.89045886 1080.5703125 152.01953125 C1082.36164261 149.7933284 1084.16738303 147.58511884 1085.9921875 145.38671875 C1094.11488601 135.56515519 1101.64443287 125.40484058 1109 115 C1110.11442966 113.43088043 1111.22901296 111.86186997 1112.34375 110.29296875 C1116.63455961 104.24133517 1120.91356519 98.19215063 1125 92 C1128.95906817 93.43308135 1132.28718181 95.33141949 1135.8125 97.625 C1137.27623047 98.57246094 1137.27623047 98.57246094 1138.76953125 99.5390625 C1139.87361328 100.26222656 1139.87361328 100.26222656 1141 101 C1139.39963392 105.81970715 1136.68911369 109.54953608 1133.75 113.625 C1132.9602478 114.73065308 1132.9602478 114.73065308 1132.15454102 115.85864258 C1130.44431233 118.24494408 1128.72403355 120.62365528 1127 123 C1126.42040527 123.79937988 1125.84081055 124.59875977 1125.24365234 125.42236328 C1114.78073236 139.8143111 1103.99818258 153.84960707 1092.40917969 167.35253906 C1090.97597461 169.0280879 1089.55350262 170.71226974 1088.1328125 172.3984375 C1081.26141286 180.5268984 1074.10733864 188.34548317 1066.79980469 196.08251953 C1064.97048117 198.03144884 1063.15890529 199.99552668 1061.3515625 201.96484375 C1055.54143608 208.28265112 1049.71591433 214.37466121 1043.234375 220.01953125 C1041.02363727 221.97904878 1038.94537293 224.01851592 1036.875 226.125 C1033.08219375 229.96295871 1029.10010825 233.49528701 1025 237 C1023.98137419 237.8823548 1022.96317863 238.76520645 1021.9453125 239.6484375 C994.99292209 262.9777325 966.48275681 284.47971802 936 303 C934.97890137 303.62213379 933.95780273 304.24426758 932.90576172 304.88525391 C882.02502182 335.71638992 826.94663125 361.1847475 769.36328125 376.52734375 C766.01240423 377.42319589 762.72502487 378.39911981 759.4453125 379.52734375 C722.6566732 392.05070288 681.27761862 396.55941486 642.73339844 399.68969727 C639.64543425 399.9463545 636.56594598 400.23604177 633.484375 400.55859375 C616.41315581 402.29959858 599.20131526 402.10482924 582.0625 402.125 C581.0362854 402.1275882 580.0100708 402.13017639 578.95275879 402.13284302 C575.98019005 402.1387478 573.00772606 402.13708935 570.03515625 402.1328125 C569.14315018 402.13479141 568.2511441 402.13677032 567.33210754 402.1388092 C562.12419503 402.11970311 557.15841498 401.70853667 552 401 C549.94031066 400.8466649 547.87891859 400.71443978 545.81640625 400.60546875 C502.14547829 398.11459264 459.30821423 391.09399413 417 380 C416.05205566 379.75459473 415.10411133 379.50918945 414.12744141 379.25634766 C344.0754016 360.92360804 275.46952959 329.24188907 216 288 C214.83476807 287.19780029 214.83476807 287.19780029 213.64599609 286.37939453 C198.16410488 275.71197573 183.37583968 264.40490511 168.83349609 252.49707031 C167.20305961 251.16580047 165.56495181 249.84393831 163.92578125 248.5234375 C158.29586027 243.9777381 152.89067265 239.24779901 147.56640625 234.34765625 C145.32441044 232.29675902 143.05208971 230.29522467 140.75 228.3125 C137.60413099 225.58224376 134.67572254 222.69681174 131.7578125 219.7265625 C130.02336652 218.02295112 128.22761453 216.44855962 126.375 214.875 C118.37401498 207.96576732 110.83113025 200.33961872 103.99609375 192.27734375 C101.71884965 189.67923552 99.35716093 187.17248747 96.98608398 184.66015625 C91.57238553 178.92190576 86.31037098 173.14705457 81.38671875 166.9765625 C79.55910527 164.69728022 77.70981222 162.44831712 75.83203125 160.2109375 C67.72457442 150.5297946 60.09769696 140.58085897 52.70263672 130.34667969 C51.05623916 128.07751231 49.39237651 125.82235334 47.72265625 123.5703125 C21.3427557 87.82143911 0.32905573 48.37107129 -18 8 C-14.93134947 5.632358 -11.97565913 3.91550271 -8.4375 2.3125 C-7.01244141 1.65701172 -7.01244141 1.65701172 -5.55859375 0.98828125 C-3 0 -3 0 0 0 Z " fill="#F4F5F7" transform="translate(211,1036)"/>
<path d="M0 0 C2.84881682 0.58308498 5.70214247 1.13885893 8.55712891 1.69091797 C31.60269327 6.16918075 54.29049404 11.28616863 76.63134766 18.53857422 C77.9836654 18.97397749 79.33604515 19.40918821 80.68847656 19.84423828 C121.47417823 32.9947696 161.02184057 48.87647707 198.63134766 69.53857422 C200.06027344 70.32095459 200.06027344 70.32095459 201.51806641 71.11914062 C214.86105269 78.45822374 227.87691577 86.21983082 240.63134766 94.53857422 C241.61989746 95.18173584 241.61989746 95.18173584 242.62841797 95.83789062 C264.11263846 109.86337639 285.04074999 124.95737559 304.63134766 141.53857422 C305.16244141 141.98620117 305.69353516 142.43382812 306.24072266 142.89501953 C313.98061053 149.42772895 321.54126193 156.12039992 328.9621582 163.01293945 C330.20276075 164.14684691 331.45634083 165.26658892 332.71655273 166.37866211 C339.72460711 172.58120947 346.36067591 179.11478203 352.96411133 185.7409668 C354.82276874 187.60500666 356.6867438 189.46360934 358.55126953 191.32177734 C364.45966357 197.22687088 370.22258739 203.16680715 375.63134766 209.53857422 C377.25102582 211.31427643 378.87546484 213.08565729 380.50634766 214.85107422 C385.42706545 220.25348879 390.05927319 225.84026281 394.63134766 231.53857422 C395.54360055 232.65877938 396.45638569 233.77855127 397.36962891 234.89794922 C405.46463676 244.86375499 413.1066745 255.13745721 420.63134766 265.53857422 C421.15760742 266.26334961 421.68386719 266.988125 422.22607422 267.73486328 C449.8007091 305.81412097 472.94866759 347.94485568 491.50634766 391.10107422 C492.02463135 392.30280273 492.54291504 393.50453125 493.0769043 394.74267578 C496.63134766 403.14930363 496.63134766 403.14930363 496.63134766 406.53857422 C494.19821393 407.57108484 491.76077874 408.58976943 489.31884766 409.60107422 C488.62855469 409.895625 487.93826172 410.19017578 487.22705078 410.49365234 C481.97119141 412.65185547 481.97119141 412.65185547 478.63134766 411.53857422 C477.55078125 409.59375 477.55078125 409.59375 476.52978516 406.98388672 C476.13098145 405.99428955 475.73217773 405.00469238 475.32128906 403.98510742 C474.67039307 402.34094849 474.67039307 402.34094849 474.00634766 400.66357422 C463.66570834 375.44471357 451.52378991 350.9876579 437.63134766 327.53857422 C436.61560351 325.80166473 435.59997822 324.06468571 434.58447266 322.32763672 C418.75531783 295.43723714 400.71607944 269.43425511 380.63134766 245.53857422 C380.18903809 245.01134766 379.74672852 244.48412109 379.29101562 243.94091797 C370.92148068 233.97264284 362.37883765 224.17726618 353.63134766 214.53857422 C352.74705078 213.56017578 351.86275391 212.58177734 350.95166016 211.57373047 C345.23874893 205.29238015 339.37375764 199.17903999 333.38134766 193.16357422 C332.73222412 192.5098584 332.08310059 191.85614258 331.41430664 191.18261719 C327.59039926 187.37084303 323.65087552 183.75461646 319.56445312 180.2265625 C316.57568321 177.6167677 313.70497363 174.88561165 310.81884766 172.16357422 C304.95648923 166.68391705 298.89929376 161.55126852 292.63134766 156.53857422 C291.43976657 155.557292 290.24976169 154.57409376 289.06103516 153.58935547 C262.79455786 131.88430217 234.23198336 112.41997899 204.63134766 95.53857422 C203.9165625 95.12816895 203.20177734 94.71776367 202.46533203 94.29492188 C153.82508188 66.4706776 100.6709512 42.9700634 45.93310547 30.08544922 C43.78085863 29.57409655 41.63928658 29.0333558 39.49853516 28.47607422 C20.95811522 23.68178381 2.26678952 19.98153146 -16.64355469 16.99194336 C-19.30021089 16.54996069 -21.93673527 16.04035037 -24.57958984 15.52294922 C-31.74770062 14.2028775 -38.9911784 13.62197102 -46.24365234 12.97607422 C-48.32971099 12.78781661 -50.41560803 12.5980963 -52.50125122 12.4052887 C-54.37716493 12.23219555 -56.25351296 12.06382823 -58.12988281 11.89575195 C-61.36865234 11.53857422 -61.36865234 11.53857422 -63.64167786 11.0506134 C-74.30093704 9.04914313 -85.64678476 9.37203233 -96.44287109 9.33544922 C-97.84823129 9.32846846 -99.25359119 9.32142752 -100.65895081 9.31433105 C-105.12468867 9.29506018 -109.59037742 9.290155 -114.05615234 9.28857422 C-115.1972068 9.28769051 -115.1972068 9.28769051 -116.36131287 9.28678894 C-139.50825827 9.27413425 -162.3633509 9.75684937 -185.36865234 12.53857422 C-186.7659476 12.69678269 -188.16341416 12.85348445 -189.56103516 13.00878906 C-206.28096756 14.87148805 -222.87714113 17.18454509 -239.36865234 20.53857422 C-240.59664551 20.78478516 -241.82463867 21.03099609 -243.08984375 21.28466797 C-261.70793844 25.02942101 -280.12582605 29.22345476 -298.36865234 34.53857422 C-299.49625977 34.8655127 -300.62386719 35.19245117 -301.78564453 35.52929688 C-391.35559905 61.7628101 -475.45724976 108.65463334 -551.69165039 178.00512695 C-552.95914485 179.16412138 -554.23883226 180.30980061 -555.52416992 181.44897461 C-561.89688905 187.10561493 -567.98188987 192.99691168 -573.99243164 199.03198242 C-575.56137595 200.60631576 -577.13563793 202.17519011 -578.71044922 203.74365234 C-584.14082725 209.17045312 -589.38639308 214.69371997 -594.36865234 220.53857422 C-595.82310751 222.14625794 -597.28086129 223.75097136 -598.74365234 225.35107422 C-602.58354357 229.61115556 -606.25544869 233.97738155 -609.86083984 238.43701172 C-611.70921644 240.72301019 -613.56808332 242.99771592 -615.43896484 245.26513672 C-622.73736256 254.13641806 -629.67529118 263.20274381 -636.36865234 272.53857422 C-640.52016572 271.09654946 -643.66843679 269.03753041 -647.18115234 266.41357422 C-648.15697266 265.68912109 -649.13279297 264.96466797 -650.13818359 264.21826172 C-650.87423828 263.66396484 -651.61029297 263.10966797 -652.36865234 262.53857422 C-647.28047341 254.42325086 -641.35355306 246.99673894 -635.36865234 239.53857422 C-634.83224121 238.86777832 -634.29583008 238.19698242 -633.74316406 237.50585938 C-627.78565411 230.06554465 -621.78180899 222.71515085 -615.33740234 215.68701172 C-613.52209498 213.70602154 -611.7517245 211.69530855 -609.99365234 209.66357422 C-601.21758122 199.61956838 -592.0324439 190.04037175 -582.58813477 180.62768555 C-580.6693973 178.71435228 -578.7561248 176.79566918 -576.84326172 174.87646484 C-570.85349491 168.88345087 -564.84590889 163.0093046 -558.36865234 157.53857422 C-556.76096862 156.08411905 -555.1562552 154.62636527 -553.55615234 153.16357422 C-549.29119926 149.31929177 -544.92004385 145.64330517 -540.45458984 142.03466797 C-538.21925418 140.22659266 -535.99677029 138.40744659 -533.78271484 136.57373047 C-523.5935611 128.16386126 -513.09187934 120.25331061 -502.36865234 112.53857422 C-501.57475098 111.96494141 -500.78084961 111.39130859 -499.96289062 110.80029297 C-471.64390978 90.4055626 -441.49669003 73.23658943 -410.36865234 57.53857422 C-408.83797119 56.76513672 -408.83797119 56.76513672 -407.27636719 55.97607422 C-383.1922606 43.8927204 -358.29192828 33.69454534 -332.80615234 24.97607422 C-332.0996051 24.7341333 -331.39305786 24.49219238 -330.6651001 24.24291992 C-320.31489734 20.71740957 -309.87460502 17.56443412 -299.36865234 14.53857422 C-298.4430249 14.26634033 -297.51739746 13.99410645 -296.5637207 13.71362305 C-215.61723663 -10.04014149 -128.51149201 -15.8208039 0 0 Z " fill="#F4F5F7" transform="translate(889.36865234375,127.46142578125)"/>
<path d="M0 0 C0.70958862 0.00060425 1.41917725 0.0012085 2.15026855 0.00183105 C43.37894716 0.09696167 82.38958995 10.81332021 118.80859375 30.19287109 C120.84189825 31.26923317 122.88851526 32.31709917 124.9375 33.36328125 C138.94493418 40.56880301 151.81386411 49.14173923 164.6875 58.1875 C163.57753122 61.51740633 163.18381053 61.80548589 160.35546875 63.5703125 C159.6495459 64.01093018 158.94362305 64.45154785 158.21630859 64.90551758 C157.05736084 65.60197388 157.05736084 65.60197388 155.875 66.3125 C155.07400879 66.79678467 154.27301758 67.28106934 153.44775391 67.7800293 C134.58541698 78.92031173 113.75463188 86.43957009 92.6875 92.1875 C91.44492432 92.53530518 91.44492432 92.53530518 90.17724609 92.89013672 C65.17029378 99.82904452 39.07412545 104.29341245 13.17280579 106.00436401 C10.62772225 106.19190487 8.09332636 106.44001379 5.55395508 106.69287109 C0.09676188 107.19148966 -5.3190455 107.37941879 -10.796875 107.42578125 C-11.7630928 107.43552979 -12.72931061 107.44527832 -13.72480774 107.45532227 C-35.92759014 107.63311254 -57.42630345 107.22523224 -79.3125 103.1875 C-80.39257324 102.98962891 -81.47264648 102.79175781 -82.58544922 102.58789062 C-93.14394594 100.59151584 -103.45536163 98.14100747 -113.5703125 94.49609375 C-116.85648573 93.34696219 -120.14345417 92.34292475 -123.48046875 91.35546875 C-130.03279318 89.3520703 -136.24811024 86.85454335 -142.5 84.0625 C-143.57934814 83.58240479 -144.65869629 83.10230957 -145.77075195 82.60766602 C-160.69085317 75.86966288 -174.2056251 67.96594325 -187.3125 58.1875 C-188.3025 57.5275 -189.2925 56.8675 -190.3125 56.1875 C-190.3125 55.5275 -190.3125 54.8675 -190.3125 54.1875 C-144.25117305 31.12029649 -95.82059316 12.39324844 -44.71630859 4.37719727 C-42.28503458 3.99569022 -39.85536303 3.60501744 -37.42578125 3.21289062 C-35.8464377 2.96041441 -34.2670134 2.70844266 -32.6875 2.45703125 C-31.97795166 2.34349808 -31.26840332 2.2299649 -30.53735352 2.11299133 C-20.31716771 0.51499829 -10.34987254 -0.01623651 0 0 Z " fill="#0A5ACE" transform="translate(813.3125,910.8125)"/>
<path d="M0 0 C1.49749178 2.24314367 2.88264919 4.4911772 4.25 6.8125 C15.50883848 25.36263693 29.30828236 42.45986172 43.3984375 58.9296875 C45.74257701 61.67734045 47.99883316 64.48800228 50.25 67.3125 C59.69292272 78.9046184 70.35796154 89.51601161 81 100 C84.05942094 103.04881637 87.10348725 106.11256773 90.14453125 109.1796875 C91.70045899 110.74485315 93.2564502 112.3099557 94.8125 113.875 C95.96588867 115.04095703 95.96588867 115.04095703 97.14257812 116.23046875 C101.92770067 121.03578169 106.82516147 125.61772782 112 130 C112.62559814 130.53222168 113.25119629 131.06444336 113.89575195 131.61279297 C141.48807475 154.92116581 170.96156441 175.3098327 203 192 C204.04365723 192.54382324 205.08731445 193.08764648 206.16259766 193.64794922 C229.96784993 205.89289511 255.07362526 214.46725507 281 221 C281.69770508 221.17611816 282.39541016 221.35223633 283.11425781 221.53369141 C294.99268167 224.43322277 307.26235503 225.39445488 319.3972168 226.65869141 C321.66992253 226.95671623 323.79458673 227.3870052 326 228 C326.09706112 234.11485027 325.77040851 239.93303301 325 246 C316.81263736 246.24050249 308.97237252 245.5605505 300.875 244.375 C299.65723877 244.19751221 298.43947754 244.02002441 297.18481445 243.8371582 C284.92478838 241.96426421 272.96294112 239.24958197 261 236 C259.57276611 235.61569824 259.57276611 235.61569824 258.11669922 235.22363281 C224.07889861 225.89323657 190.49768139 210.41864075 161 191 C160.18595703 190.47229004 159.37191406 189.94458008 158.53320312 189.40087891 C136.65215371 175.20765519 115.58166365 159.84550132 96.37109375 142.16015625 C94.34389905 140.31330507 92.29173359 138.50644808 90.22265625 136.70703125 C77.74787089 125.8120665 66.09188229 114.2003394 54.87255859 102.02539062 C53.06818582 100.07375093 51.2500344 98.13617549 49.42578125 96.203125 C43.79124733 90.21955629 38.35660837 84.16451046 33.21875 77.7421875 C31.2648409 75.32732098 29.2576097 72.97074257 27.22314453 70.6237793 C19.96387207 62.21685293 13.36770843 53.3292806 6.77197266 44.39794922 C5.17048909 42.23071697 3.56134557 40.06947457 1.94921875 37.91015625 C-0.73746768 34.29951408 -3.3845734 30.66256772 -6 27 C-6.47937012 26.33000977 -6.95874023 25.66001953 -7.45263672 24.96972656 C-8.90141039 22.9281642 -10.32887045 20.87337599 -11.75 18.8125 C-12.1931958 18.18819092 -12.6363916 17.56388184 -13.09301758 16.9206543 C-14.67726444 14.58331989 -15.94578933 12.69717438 -16.16796875 9.83984375 C-14.30643594 6.90746263 -11.50056751 5.44685182 -8.5625 3.75 C-7.96373047 3.38648438 -7.36496094 3.02296875 -6.74804688 2.6484375 C-2.30245536 0 -2.30245536 0 0 0 Z " fill="#F4F5F7" transform="translate(327,1086)"/>
<path d="M0 0 C5.8491913 0.45289014 10.92787038 2.20727903 16.375 4.3125 C17.2812915 4.66151367 18.18758301 5.01052734 19.12133789 5.37011719 C44.25264938 15.28177838 68.36654537 28.28792958 91 43 C91.98355469 43.6290625 92.96710938 44.258125 93.98046875 44.90625 C107.15258448 53.48175155 119.92102759 62.94743415 132 73 C133.010625 73.83789062 134.02125 74.67578125 135.0625 75.5390625 C142.03508525 81.35889684 148.7953911 87.37711038 155.44677734 93.56005859 C157.09050382 95.0839031 158.74169984 96.59931958 160.39453125 98.11328125 C167.9401998 105.03103855 175.30724923 111.94681637 181.9921875 119.7109375 C183.94313669 121.9351714 185.94065753 124.11072459 187.95336914 126.27905273 C193.55770324 132.32418797 198.88021096 138.53621854 204 145 C204.50370117 145.63115723 205.00740234 146.26231445 205.52636719 146.91259766 C223.98657622 170.08871951 240.05807383 194.57122708 254.54199219 220.40136719 C256.01347714 223.02402054 257.49456664 225.64108714 258.9765625 228.2578125 C259.90165172 229.9006983 260.82615784 231.54391261 261.75 233.1875 C262.18070801 233.94812744 262.61141602 234.70875488 263.05517578 235.49243164 C266 240.76933715 266 240.76933715 266 243 C263.54429825 244.33838733 261.08570084 245.67086232 258.625 247 C257.57699219 247.57234375 257.57699219 247.57234375 256.5078125 248.15625 C251.2265625 251 251.2265625 251 249 251 C248.195625 249.41251953 248.195625 249.41251953 247.375 247.79296875 C235.80016034 225.23329985 222.70526199 203.65111451 208 183 C207.39913574 182.154375 206.79827148 181.30875 206.17919922 180.4375 C199.42249415 170.97847783 192.41390533 161.86416082 184.734375 153.13671875 C182.2092113 150.26649617 179.81762987 147.30454269 177.4375 144.3125 C173.4070688 139.33502759 169.00561503 134.90415547 164.43359375 130.43359375 C162.59056117 128.59056117 160.91999368 126.79048862 159.3125 124.75 C156.85206533 121.82407769 154.19798441 119.51195955 151.29296875 117.04296875 C148.63776808 114.67726185 146.17348921 112.16773077 143.6875 109.625 C139.32103912 105.18687122 134.73300543 101.17865213 129.86328125 97.30078125 C127.33657167 95.27045118 124.86962032 93.18555067 122.41625977 91.06762695 C100.8270823 72.48890565 76.73404393 57.02863222 52 43 C51.29987793 42.59765137 50.59975586 42.19530273 49.87841797 41.78076172 C40.07840684 36.18456065 29.83988368 31.61750979 19.5 27.125 C18.84902344 26.84164795 18.19804688 26.5582959 17.52734375 26.26635742 C10.44441075 23.19440353 3.37855556 20.29376836 -4 18 C-4.48249435 12.04923634 -2.84269014 6.60445135 -1 1 C-0.67 0.67 -0.34 0.34 0 0 Z " fill="#F4F5F7" transform="translate(1005,237)"/>
</svg>
